# xmcd
#
# Track frame offsets: 
#        150
#        20978
#        47912
#        68221
#        89279
#        112260
#        137635
#        160326
#
# Disc length: 2401 seconds
#
# Revision: 1
# Processed by: cddbd v1.5.2PL0 Copyright (c) Steve Scherf et al.
# Submitted via: ExactAudioCopy v0.99pb5
#
DISCID=74095f08
DTITLE=Bill Perkins, Richie Kamuca, Pete Jolly, Red Mitchell, Stan Lev
DTITLE=ey - Tenors Head-On
DYEAR=1956
DGENRE=Jazz
TTITLE0=Cotton Tail <D. Ellington>
TTITLE1=I Want A Little Girl <B. Moll, M. Mencher>
TTITLE2=Blues For Two <R. Mitchell>
TTITLE3=Indian Summer <A. Dubin, V. Herbert>
TTITLE4=Don't Be That Way <M. Parish, E. Sampson, B. Goodman>
TTITLE5=Oh! Look At Me Now <J. de Vries, J. Bushkin>
TTITLE6=Spain <G. Kahn, I. Jones>
TTITLE7=Pick A Dilly <A. Cohn>
EXTD=
EXTT0=
EXTT1=
EXTT2=
EXTT3=
EXTT4=
EXTT5=
EXTT6=
EXTT7=
PLAYORDER=
